<svg width="31" height="30" viewBox="0 0 31 30" fill="none" xmlns="http://www.w3.org/2000/svg"><path d="M22.245 29.978H8.92c-4.58 0-8.327-3.747-8.327-8.327V8.327C.594 3.747 4.34 0 8.92 0h13.324c4.58 0 8.327 3.747 8.327 8.327v13.324c0 4.58-3.747 8.327-8.327 8.327Z" fill="#304FFE"/><path d="M.594 8.327v13.324c0 4.58 3.747 8.327 8.327 8.327h13.324c4.58 0 8.327-3.747 8.327-8.327V8.327c0-.832-.083-1.582-.333-2.331C25.576 2.248 19.58 0 13.085 0c-3.081 0-6.08.5-8.91 1.499A8.287 8.287 0 0 0 .593 8.327Z" fill="#304FFE" fill-opacity=".29"/><path d="M13.085 1.666c-4.164 0-7.995.999-11.492 2.664a8.369 8.369 0 0 0-1 3.997v13.324c0 4.58 3.748 8.327 8.328 8.327h13.324c4.58 0 8.327-3.747 8.327-8.327V8.494c-4.58-4.247-10.742-6.828-17.487-6.828Z" fill="#6200EA"/><path d="M30.572 10.826C26.159 6.246 19.996 3.33 13.085 3.33 8.588 3.331 4.34 4.581.76 6.745c-.083.5-.166 1-.166 1.582v13.324c0 4.58 3.747 8.327 8.327 8.327h13.324c4.58 0 8.327-3.747 8.327-8.327V10.826Z" fill="#673AB7"/><path d="M30.572 13.324c-4.08-5.08-10.41-8.327-17.487-8.327-4.664 0-8.91 1.415-12.491 3.83v12.824c0 4.58 3.747 8.328 8.327 8.328h13.324c4.58 0 8.327-3.748 8.327-8.328v-8.327Z" fill="#8E24AA"/><path d="M30.572 21.65v-5.496C26.825 10.49 20.412 6.66 13.085 6.66 8.42 6.66 4.09 8.243.594 10.824V21.65c0 4.58 3.747 8.327 8.327 8.327h13.324c4.58 0 8.327-3.747 8.327-8.327Z" fill="#C2185B"/><path d="M30.572 21.648V19.65c-2.998-6.662-9.66-11.325-17.487-11.325A18.97 18.97 0 0 0 .594 12.988v8.66c0 4.58 3.747 8.328 8.327 8.328h13.324c4.58 0 8.327-3.748 8.327-8.328Z" fill="#D81B60"/><path d="M30.239 23.983c-1.582-7.995-8.66-13.99-17.154-13.99-4.913 0-9.327 1.998-12.491 5.246v6.412c0 4.58 3.747 8.327 8.327 8.327h13.324c3.747 0 6.995-2.498 7.994-5.995Z" fill="#F50057"/><path d="M28.823 26.647c-.416-8.327-7.245-14.99-15.738-14.99-5.08 0-9.577 2.416-12.491 6.163v3.83c0 4.58 3.747 8.328 8.327 8.328h13.324c2.665 0 5.08-1.333 6.578-3.331Z" fill="#FF1744"/><path d="M13.085 13.324c-5.413 0-10.076 2.998-12.491 7.494v.833c0 4.58 3.747 8.327 8.327 8.327h13.324c1.832 0 3.58-.583 4.913-1.665 0-.25.083-.583.083-.833 0-7.828-6.329-14.156-14.156-14.156Z" fill="#FF5722"/><path d="M13.085 14.99c-5.83 0-10.66 3.913-12.075 9.326 1.083 3.33 4.247 5.662 7.91 5.662h13.325c1.165 0 2.165-.25 3.164-.666.083-.583.167-1.249.167-1.832 0-6.912-5.58-12.49-12.491-12.49Z" fill="#FF6F00"/><path d="M13.085 16.655c-5.746 0-10.41 4.413-10.742 9.992 1.498 2 3.913 3.332 6.578 3.332h13.324c.5 0 .916-.084 1.415-.167.167-.75.25-1.499.25-2.332 0-5.995-4.83-10.825-10.825-10.825Z" fill="#FF9800"/><path d="M21.912 29.979c.25-.833.333-1.666.333-2.499 0-5.08-4.08-9.16-9.16-9.16s-9.16 4.08-9.16 9.16c0 .25 0 .583.083.833 1.416 1 3.081 1.666 4.913 1.666h12.99Z" fill="#FFC107"/><path d="M13.084 19.985a7.463 7.463 0 0 0-7.494 7.494c0 .667.083 1.333.25 1.916.916.416 1.998.583 3.08.583h11.243a7.85 7.85 0 0 0 .416-2.499 7.463 7.463 0 0 0-7.495-7.494Z" fill="#FFD54F"/><path d="M13.085 21.734a5.793 5.793 0 0 0-5.83 5.83c0 .832.167 1.582.5 2.331.417.083.75.083 1.166.083h9.493c.333-.75.5-1.582.5-2.415a5.793 5.793 0 0 0-5.83-5.829Z" fill="#FFE082"/><path d="M13.085 23.4a4.123 4.123 0 0 0-4.164 4.163c0 .916.333 1.749.833 2.415h6.662c.5-.666.832-1.499.832-2.415a4.123 4.123 0 0 0-4.163-4.164Z" fill="#FFECB3"/><path d="M20.58 26.648h-9.993c-3.664 0-6.662-2.998-6.662-6.662V9.993c0-3.664 2.998-6.662 6.662-6.662h9.992c3.664 0 6.662 2.998 6.662 6.662v9.993c0 3.664-2.998 6.662-6.662 6.662ZM10.586 4.997A5.011 5.011 0 0 0 5.59 9.993v9.993a5.011 5.011 0 0 0 4.997 4.996h9.992a5.011 5.011 0 0 0 4.997-4.996V9.993a5.011 5.011 0 0 0-4.997-4.996h-9.992Z" fill="#fff"/><path d="M15.583 20.815a5.793 5.793 0 0 1-5.83-5.83 5.793 5.793 0 0 1 5.83-5.828 5.793 5.793 0 0 1 5.83 5.829 5.793 5.793 0 0 1-5.83 5.829Zm0-9.993a4.123 4.123 0 0 0-4.164 4.164 4.123 4.123 0 0 0 4.164 4.163 4.123 4.123 0 0 0 4.164-4.163 4.123 4.123 0 0 0-4.164-4.164ZM22.245 8.327c0 .5-.333.833-.833.833-.5 0-.833-.333-.833-.833 0-.5.333-.832.833-.832.5 0 .833.333.833.832Z" fill="#fff"/></svg>