<svg width="31" height="30" viewBox="0 0 31 30" fill="none" xmlns="http://www.w3.org/2000/svg"><path d="M.957 8.468A8.468 8.468 0 0 1 9.425 0h12.701a8.468 8.468 0 0 1 8.468 8.468v12.701a8.468 8.468 0 0 1-8.468 8.468H9.425A8.468 8.468 0 0 1 .957 21.17V8.468Z" fill="#34B2E2"/><path fill-rule="evenodd" clip-rule="evenodd" d="M25.364 9.701a7.188 7.188 0 0 1-2.158.625 3.941 3.941 0 0 0 1.653-2.191 7.247 7.247 0 0 1-2.386.961 3.662 3.662 0 0 0-2.74-1.25c-2.076 0-3.758 1.773-3.758 3.961 0 .309.034.613.099.902-3.122-.167-5.89-1.742-7.743-4.14a4.128 4.128 0 0 0-.507 1.991c0 1.376.661 2.589 1.67 3.298a3.596 3.596 0 0 1-1.702-.495v.05c0 1.92 1.295 3.52 3.014 3.885a3.658 3.658 0 0 1-1.696.068c.478 1.574 1.866 2.718 3.509 2.75a7.294 7.294 0 0 1-5.56 1.64 10.239 10.239 0 0 0 5.757 1.78c6.91 0 10.687-6.036 10.687-11.272 0-.17-.005-.342-.01-.51a7.844 7.844 0 0 0 1.87-2.053Z" fill="#fff"/></svg>