<svg width="31" height="30" viewBox="0 0 31 30" fill="none" xmlns="http://www.w3.org/2000/svg"><path d="M.979 8.565A8.565 8.565 0 0 1 9.544 0h12.848a8.565 8.565 0 0 1 8.565 8.565v12.848a8.565 8.565 0 0 1-8.565 8.565H9.544a8.565 8.565 0 0 1-8.565-8.565V8.565Z" fill="#0288D1"/><path d="M24.411 17.73c1.755 1.643 2.12 2.447 2.18 2.545.724 1.219-.804 1.314-.804 1.314l-2.927.043s-.632.125-1.458-.451c-1.096-.757-2.594-2.733-3.397-2.476-.817.26-.557 2.33-.557 2.33s.007.254-.178.459c-.204.213-.599.131-.599.131h-.842s-3.125.013-5.673-2.666c-2.775-2.92-5.096-8.382-5.096-8.382s-.141-.346.01-.53c.174-.208.645-.204.645-.204h3.131s.293.04.504.197c.177.129.273.372.273.372s.379 1.018 1.05 2.19c1.307 2.284 1.916 2.785 2.36 2.538.646-.36.452-3.23.452-3.23s.013-1.043-.326-1.508c-.264-.362-.754-.467-.972-.497-.177-.02.112-.434.488-.619.563-.276 1.56-.296 2.735-.283.916.01 1.261-.003 1.261-.003 1.08.263.715 1.284.715 3.72 0 .784-.142 1.883.418 2.245.24.162 1.103.185 2.568-2.334.698-1.195 1.247-2.318 1.247-2.318s.119-.253.293-.358c.185-.112.428-.112.428-.112l3.296.016s.99-.125 1.149.33c.168.473-.405 1.303-1.748 3.117-2.213 2.98-2.46 2.703-.626 4.425Z" fill="#fff"/></svg>