<svg width="31" height="30" viewBox="0 0 31 30" fill="none" xmlns="http://www.w3.org/2000/svg"><path d="M.572 8.565A8.565 8.565 0 0 1 9.137 0h12.848a8.565 8.565 0 0 1 8.566 8.565v12.848a8.565 8.565 0 0 1-8.566 8.565H9.137a8.565 8.565 0 0 1-8.565-8.565V8.565Z" fill="#F44336"/><path d="M8.246 3.212H9.7l.938 3.76h.09l.896-3.757h1.467L11.41 8.71v4.077H9.964v-3.9L8.246 3.211ZM13.024 7.263c0-.535.173-.965.52-1.28.345-.32.808-.481 1.393-.481.532 0 .964.168 1.304.505.34.334.508.767.508 1.296v3.58c0 .594-.166 1.059-.497 1.398-.332.34-.789.508-1.374.508-.564 0-1.01-.177-1.35-.524-.336-.348-.504-.818-.504-1.406V7.263Zm1.32 3.725c0 .19.045.339.141.443.091.102.22.153.39.153.174 0 .31-.051.415-.158.101-.104.155-.251.155-.438V7.212a.475.475 0 0 0-.16-.369.596.596 0 0 0-.41-.139.541.541 0 0 0-.382.14.485.485 0 0 0-.15.368v3.776ZM21.502 5.679v7.11H20.22v-.866a2.76 2.76 0 0 1-.74.644 1.484 1.484 0 0 1-.743.222c-.297 0-.519-.102-.671-.31-.15-.206-.224-.513-.224-.927V5.679h1.282v5.394c0 .16.027.281.08.356.054.07.142.11.262.11.096 0 .214-.049.355-.147.147-.097.278-.222.399-.372V5.68h1.282ZM25.935 17.192c0-1.6-1.328-2.9-2.963-2.9a165.192 165.192 0 0 0-7.16-.136c-2.438-.002-4.826.04-7.162.137-1.632 0-2.96 1.298-2.96 2.899a48.882 48.882 0 0 0-.14 3.805c-.002 1.269.04 2.535.14 3.805 0 1.603 1.325 2.901 2.96 2.901 2.335.097 4.724.137 7.161.134 2.437.005 4.829-.037 7.161-.134 1.635 0 2.963-1.298 2.963-2.901.097-1.27.142-2.536.137-3.805a47.61 47.61 0 0 0-.137-3.805Z" fill="#fff"/><path d="M22.55 19.86c-.149 0-.25.037-.312.123-.045.061-.101.203-.101.513v.529h.817v-.53c0-.304-.056-.448-.104-.518-.059-.08-.155-.117-.3-.117ZM17.77 19.893a.732.732 0 0 0-.177.13v4.02c.078.077.15.13.217.165.077.04.155.056.238.056.157 0 .205-.061.221-.085.04-.048.083-.15.083-.369v-3.423c0-.19-.037-.336-.104-.427-.09-.123-.273-.171-.478-.067Z" fill="#B90D00"/><path d="M25.935 17.192c0-1.6-1.328-2.9-2.963-2.9a165.192 165.192 0 0 0-7.16-.136c-2.438-.002-4.826.04-7.162.137-1.632 0-2.96 1.298-2.96 2.899a48.882 48.882 0 0 0-.14 3.805c-.002 1.269.04 2.535.14 3.805 0 1.603 1.325 2.901 2.96 2.901 2.335.097 4.724.137 7.161.134 2.437.005 4.829-.037 7.161-.134 1.635 0 2.963-1.298 2.963-2.901.097-1.27.142-2.536.137-3.805a47.61 47.61 0 0 0-.137-3.805Zm-15.802 8.17a.14.14 0 0 1-.139.14H8.591a.142.142 0 0 1-.141-.14v-7.545H7.14a.14.14 0 0 1-.138-.139v-1.301c0-.078.064-.142.139-.142h4.304c.078 0 .142.064.142.142v1.301a.14.14 0 0 1-.142.139h-1.312v7.546Zm4.992 0a.142.142 0 0 1-.142.14h-1.245a.14.14 0 0 1-.142-.14v-.376a2.565 2.565 0 0 1-.505.382c-.272.155-.532.23-.793.23-.335 0-.591-.12-.765-.353-.163-.222-.245-.55-.245-.972V18.73a.14.14 0 0 1 .141-.14h1.245a.14.14 0 0 1 .14.14v5.082c0 .166.031.235.05.262.008.01.035.045.139.045.037 0 .117-.016.267-.115.12-.08.227-.179.323-.29V18.73c0-.075.065-.14.142-.14h1.245c.078 0 .142.065.142.14v6.632h.002Zm4.79-1.375c0 .505-.11.898-.323 1.17-.224.286-.545.428-.956.428-.262 0-.503-.054-.717-.16a1.566 1.566 0 0 1-.326-.223v.16a.14.14 0 0 1-.141.14h-1.256a.139.139 0 0 1-.142-.14v-8.988c0-.077.062-.139.142-.139h1.256a.14.14 0 0 1 .141.14v2.543c.102-.094.212-.171.324-.235.21-.118.427-.177.644-.177.438 0 .78.163 1.015.484.224.307.337.754.337 1.323l.002 3.674Zm4.604-1.782a.14.14 0 0 1-.141.138h-2.24v1.11c0 .405.057.58.102.651.035.06.104.137.3.137.157 0 .264-.038.32-.113.024-.04.093-.192.093-.676v-.462a.14.14 0 0 1 .142-.139h1.283c.077 0 .139.062.139.139v.5c0 .713-.171 1.26-.505 1.63-.334.371-.84.56-1.502.56-.596 0-1.077-.202-1.422-.595-.342-.39-.518-.927-.518-1.595v-2.98c0-.609.19-1.114.57-1.501.376-.388.87-.585 1.466-.585.607 0 1.085.184 1.416.547.329.361.495.88.495 1.542v1.691h.002Z" fill="#B90D00"/></svg>