<svg width="20" height="20" viewBox="0 0 20 20" fill="none" xmlns="http://www.w3.org/2000/svg"><path d="M15.974 5.056h-2.121C13.579 3.402 12.108 2 10.5 2S7.421 3.402 7.147 5.056h-2.12C4.444 5.056 4 5.524 4 6.135V16.92C4 17.533 4.445 18 5.026 18h10.948c.581 0 1.026-.467 1.026-1.079V6.135c0-.611-.445-1.079-1.026-1.079ZM10.5 3.08c1.026 0 2.053.934 2.292 1.977H8.208C8.448 4.013 9.474 3.08 10.5 3.08Zm5.474 13.842H5.026V6.135H7.08v1.078c0 .288.24.54.513.54.274 0 .513-.252.513-.54V6.135h4.79v1.078c0 .288.24.54.513.54.274 0 .513-.252.513-.54V6.135h2.053V16.92Z" fill="#120044"/></svg>