<svg width="20" height="20" viewBox="0 0 20 20" fill="none" xmlns="http://www.w3.org/2000/svg"><path d="M9.818 2C6.545 2 3.682 4.864 3.682 8.136c0 1.023.443 2.114.818 2.83 0 .034.034.068.034.068C8.25 17 9.34 17 9.818 17c.75 0 1.534-.511 3.41-3.17a46.317 46.317 0 0 0 1.874-2.796c0-.034.034-.068.034-.068.375-.716.818-1.807.818-2.83C15.954 4.864 13.091 2 9.818 2Zm4.432 8.523s-3.41 5.454-4.432 5.454c-1.023 0-4.432-5.454-4.432-5.454-.34-.648-.682-1.568-.682-2.387 0-2.727 2.387-5.113 5.114-5.113s5.114 2.386 5.114 5.113c0 .784-.375 1.705-.682 2.387Z" fill="#120044"/><path d="M9.818 5.068a2.735 2.735 0 0 0-2.727 2.727c0 1.5 1.227 2.728 2.727 2.728 1.5 0 2.727-1.228 2.727-2.728 0-1.5-1.227-2.727-2.727-2.727Zm0 4.432c-.954 0-1.704-.75-1.704-1.705 0-.954.75-1.704 1.704-1.704.955 0 1.705.75 1.705 1.704 0 .955-.75 1.705-1.705 1.705Z" fill="#120044"/></svg>