<svg width="94" height="27" viewBox="0 0 94 27" fill="none" xmlns="http://www.w3.org/2000/svg"><mask id="a" maskUnits="userSpaceOnUse" x="0" y=".346" width="94" height="27" fill="#000"><path fill="#fff" d="M0 .346h94v27H0z"/><path d="M9.023 19.648a.739.739 0 0 1-.56-.15.72.72 0 0 1-.282-.503L7.007 9.344a.686.686 0 0 1 .152-.554.734.734 0 0 1 .509-.277c.289-.034.527.073.713.32l5.324 7.975 3.143-8.978c.122-.284.327-.443.616-.478a.739.739 0 0 1 .561.151.69.69 0 0 1 .281.502l1.175 9.652a.693.693 0 0 1-.167.554.717.717 0 0 1-.494.276.739.739 0 0 1-.561-.15.72.72 0 0 1-.281-.502l-.862-7.086-2.642 7.443c-.133.266-.335.416-.605.448-.318.037-.567-.083-.747-.36l-4.285-6.42.847 6.957a.715.715 0 0 1-.152.553.734.734 0 0 1-.509.278ZM28.554 18.611a.733.733 0 0 1-.504-.285.715.715 0 0 1-.144-.555l1.33-9.632a.69.69 0 0 1 .288-.498.739.739 0 0 1 .563-.141l6.518.875c.221.03.39.12.506.271a.647.647 0 0 1 .133.525.634.634 0 0 1-.268.457c-.152.105-.338.143-.56.113l-5.767-.775-.477 3.458 4.138.556c.221.03.39.12.506.27a.63.63 0 0 1 .135.511.68.68 0 0 1-.27.471c-.152.105-.338.143-.56.113l-4.138-.556-.49 3.557 5.767.775c.221.03.39.116.508.257a.63.63 0 0 1 .135.51.698.698 0 0 1-.272.486c-.152.105-.338.143-.56.113l-6.517-.876ZM46.674 19.395a.74.74 0 0 1-.563-.141.72.72 0 0 1-.29-.498L44.49 9.125a.686.686 0 0 1 .144-.556.734.734 0 0 1 .504-.285l2.595-.35c.721-.097 1.381-.031 1.98.197a3.256 3.256 0 0 1 1.468 1.05c.39.478.632 1.064.727 1.756.095.683.005 1.309-.269 1.877a3.283 3.283 0 0 1-1.251 1.357l2.69 3.203c.21.251.271.509.18.773-.092.253-.292.401-.6.443a.74.74 0 0 1-.698-.269l-3.023-3.593-.26.036-1.845.248.49 3.543a.715.715 0 0 1-.143.555.704.704 0 0 1-.504.285Zm-.032-5.749 1.846-.248c.653-.088 1.167-.341 1.54-.758.372-.427.518-.93.438-1.509-.087-.626-.37-1.11-.848-1.45-.477-.342-1.043-.469-1.697-.38l-1.846.248.567 4.097ZM62.63 18.791a.734.734 0 0 1-.513-.268.715.715 0 0 1-.161-.551l1.014-9.67a.69.69 0 0 1 .272-.506.739.739 0 0 1 .558-.16l2.606.267c.724.074 1.35.291 1.877.653.529.353.92.806 1.174 1.362.264.556.359 1.181.286 1.877-.072.685-.309 1.272-.711 1.76-.401.479-.915.821-1.542 1.027l1.847 3.74c.144.293.141.557-.01.792-.15.225-.38.322-.69.29a.736.736 0 0 1-.613-.423l-2.076-4.196-.261-.027-1.853-.189-.373 3.557a.72.72 0 0 1-.272.506.708.708 0 0 1-.558.16Zm1.348-5.593 1.853.19c.656.066 1.215-.06 1.678-.378.463-.328.726-.782.787-1.363.066-.629-.093-1.165-.476-1.608-.382-.443-.902-.698-1.558-.765l-1.853-.19-.431 4.114ZM80.985 18.987a.717.717 0 0 1-.495-.274.715.715 0 0 1-.155-.552l.388-3.324-3.167-6.359c-.102-.214-.129-.405-.08-.573a.657.657 0 0 1 .296-.4.78.78 0 0 1 .512-.115c.163.019.29.072.377.159.088.077.168.188.24.33l2.763 5.678 4.067-4.958a.753.753 0 0 1 .706-.28c.174.02.311.098.412.234a.707.707 0 0 1 .15.466.81.81 0 0 1-.205.511l-4.582 5.477-.388 3.324a.72.72 0 0 1-.279.503.739.739 0 0 1-.56.153Z"/></mask><path d="M9.023 19.648a.739.739 0 0 1-.56-.15.72.72 0 0 1-.282-.503L7.007 9.344a.686.686 0 0 1 .152-.554.734.734 0 0 1 .509-.277c.289-.034.527.073.713.32l5.324 7.975 3.143-8.978c.122-.284.327-.443.616-.478a.739.739 0 0 1 .561.151.69.69 0 0 1 .281.502l1.175 9.652a.693.693 0 0 1-.167.554.717.717 0 0 1-.494.276.739.739 0 0 1-.561-.15.72.72 0 0 1-.281-.502l-.862-7.086-2.642 7.443c-.133.266-.335.416-.605.448-.318.037-.567-.083-.747-.36l-4.285-6.42.847 6.957a.715.715 0 0 1-.152.553.734.734 0 0 1-.509.278ZM28.554 18.611a.733.733 0 0 1-.504-.285.715.715 0 0 1-.144-.555l1.33-9.632a.69.69 0 0 1 .288-.498.739.739 0 0 1 .563-.141l6.518.875c.221.03.39.12.506.271a.647.647 0 0 1 .133.525.634.634 0 0 1-.268.457c-.152.105-.338.143-.56.113l-5.767-.775-.477 3.458 4.138.556c.221.03.39.12.506.27a.63.63 0 0 1 .135.511.68.68 0 0 1-.27.471c-.152.105-.338.143-.56.113l-4.138-.556-.49 3.557 5.767.775c.221.03.39.116.508.257a.63.63 0 0 1 .135.51.698.698 0 0 1-.272.486c-.152.105-.338.143-.56.113l-6.517-.876ZM46.674 19.395a.74.74 0 0 1-.563-.141.72.72 0 0 1-.29-.498L44.49 9.125a.686.686 0 0 1 .144-.556.734.734 0 0 1 .504-.285l2.595-.35c.721-.097 1.381-.031 1.98.197a3.256 3.256 0 0 1 1.468 1.05c.39.478.632 1.064.727 1.756.095.683.005 1.309-.269 1.877a3.283 3.283 0 0 1-1.251 1.357l2.69 3.203c.21.251.271.509.18.773-.092.253-.292.401-.6.443a.74.74 0 0 1-.698-.269l-3.023-3.593-.26.036-1.845.248.49 3.543a.715.715 0 0 1-.143.555.704.704 0 0 1-.504.285Zm-.032-5.749 1.846-.248c.653-.088 1.167-.341 1.54-.758.372-.427.518-.93.438-1.509-.087-.626-.37-1.11-.848-1.45-.477-.342-1.043-.469-1.697-.38l-1.846.248.567 4.097ZM62.63 18.791a.734.734 0 0 1-.513-.268.715.715 0 0 1-.161-.551l1.014-9.67a.69.69 0 0 1 .272-.506.739.739 0 0 1 .558-.16l2.606.267c.724.074 1.35.291 1.877.653.529.353.92.806 1.174 1.362.264.556.359 1.181.286 1.877-.072.685-.309 1.272-.711 1.76-.401.479-.915.821-1.542 1.027l1.847 3.74c.144.293.141.557-.01.792-.15.225-.38.322-.69.29a.736.736 0 0 1-.613-.423l-2.076-4.196-.261-.027-1.853-.189-.373 3.557a.72.72 0 0 1-.272.506.708.708 0 0 1-.558.16Zm1.348-5.593 1.853.19c.656.066 1.215-.06 1.678-.378.463-.328.726-.782.787-1.363.066-.629-.093-1.165-.476-1.608-.382-.443-.902-.698-1.558-.765l-1.853-.19-.431 4.114ZM80.985 18.987a.717.717 0 0 1-.495-.274.715.715 0 0 1-.155-.552l.388-3.324-3.167-6.359c-.102-.214-.129-.405-.08-.573a.657.657 0 0 1 .296-.4.78.78 0 0 1 .512-.115c.163.019.29.072.377.159.088.077.168.188.24.33l2.763 5.678 4.067-4.958a.753.753 0 0 1 .706-.28c.174.02.311.098.412.234a.707.707 0 0 1 .15.466.81.81 0 0 1-.205.511l-4.582 5.477-.388 3.324a.72.72 0 0 1-.279.503.739.739 0 0 1-.56.153Z" fill="#8B48CF"/><path d="M9.023 19.648a.739.739 0 0 1-.56-.15.72.72 0 0 1-.282-.503L7.007 9.344a.686.686 0 0 1 .152-.554.734.734 0 0 1 .509-.277c.289-.034.527.073.713.32l5.324 7.975 3.143-8.978c.122-.284.327-.443.616-.478a.739.739 0 0 1 .561.151.69.69 0 0 1 .281.502l1.175 9.652a.693.693 0 0 1-.167.554.717.717 0 0 1-.494.276.739.739 0 0 1-.561-.15.72.72 0 0 1-.281-.502l-.862-7.086-2.642 7.443c-.133.266-.335.416-.605.448-.318.037-.567-.083-.747-.36l-4.285-6.42.847 6.957a.715.715 0 0 1-.152.553.734.734 0 0 1-.509.278ZM28.554 18.611a.733.733 0 0 1-.504-.285.715.715 0 0 1-.144-.555l1.33-9.632a.69.69 0 0 1 .288-.498.739.739 0 0 1 .563-.141l6.518.875c.221.03.39.12.506.271a.647.647 0 0 1 .133.525.634.634 0 0 1-.268.457c-.152.105-.338.143-.56.113l-5.767-.775-.477 3.458 4.138.556c.221.03.39.12.506.27a.63.63 0 0 1 .135.511.68.68 0 0 1-.27.471c-.152.105-.338.143-.56.113l-4.138-.556-.49 3.557 5.767.775c.221.03.39.116.508.257a.63.63 0 0 1 .135.51.698.698 0 0 1-.272.486c-.152.105-.338.143-.56.113l-6.517-.876ZM46.674 19.395a.74.74 0 0 1-.563-.141.72.72 0 0 1-.29-.498L44.49 9.125a.686.686 0 0 1 .144-.556.734.734 0 0 1 .504-.285l2.595-.35c.721-.097 1.381-.031 1.98.197a3.256 3.256 0 0 1 1.468 1.05c.39.478.632 1.064.727 1.756.095.683.005 1.309-.269 1.877a3.283 3.283 0 0 1-1.251 1.357l2.69 3.203c.21.251.271.509.18.773-.092.253-.292.401-.6.443a.74.74 0 0 1-.698-.269l-3.023-3.593-.26.036-1.845.248.49 3.543a.715.715 0 0 1-.143.555.704.704 0 0 1-.504.285Zm-.032-5.749 1.846-.248c.653-.088 1.167-.341 1.54-.758.372-.427.518-.93.438-1.509-.087-.626-.37-1.11-.848-1.45-.477-.342-1.043-.469-1.697-.38l-1.846.248.567 4.097ZM62.63 18.791a.734.734 0 0 1-.513-.268.715.715 0 0 1-.161-.551l1.014-9.67a.69.69 0 0 1 .272-.506.739.739 0 0 1 .558-.16l2.606.267c.724.074 1.35.291 1.877.653.529.353.92.806 1.174 1.362.264.556.359 1.181.286 1.877-.072.685-.309 1.272-.711 1.76-.401.479-.915.821-1.542 1.027l1.847 3.74c.144.293.141.557-.01.792-.15.225-.38.322-.69.29a.736.736 0 0 1-.613-.423l-2.076-4.196-.261-.027-1.853-.189-.373 3.557a.72.72 0 0 1-.272.506.708.708 0 0 1-.558.16Zm1.348-5.593 1.853.19c.656.066 1.215-.06 1.678-.378.463-.328.726-.782.787-1.363.066-.629-.093-1.165-.476-1.608-.382-.443-.902-.698-1.558-.765l-1.853-.19-.431 4.114ZM80.985 18.987a.717.717 0 0 1-.495-.274.715.715 0 0 1-.155-.552l.388-3.324-3.167-6.359c-.102-.214-.129-.405-.08-.573a.657.657 0 0 1 .296-.4.78.78 0 0 1 .512-.115c.163.019.29.072.377.159.088.077.168.188.24.33l2.763 5.678 4.067-4.958a.753.753 0 0 1 .706-.28c.174.02.311.098.412.234a.707.707 0 0 1 .15.466.81.81 0 0 1-.205.511l-4.582 5.477-.388 3.324a.72.72 0 0 1-.279.503.739.739 0 0 1-.56.153Z" stroke="#A19FE8" stroke-width="14" stroke-linejoin="round" mask="url(#a)"/><mask id="b" maskUnits="userSpaceOnUse" x="2" y="2.346" width="90" height="23" fill="#000"><path fill="#fff" d="M2 2.346h90v23H2z"/><path d="M9.023 19.648a.739.739 0 0 1-.56-.15.72.72 0 0 1-.282-.503L7.007 9.344a.686.686 0 0 1 .152-.554.734.734 0 0 1 .509-.277c.289-.034.527.073.713.32l5.324 7.975 3.143-8.978c.122-.284.327-.443.616-.478a.739.739 0 0 1 .561.151.69.69 0 0 1 .281.502l1.175 9.652a.693.693 0 0 1-.167.554.717.717 0 0 1-.494.276.739.739 0 0 1-.561-.15.72.72 0 0 1-.281-.502l-.862-7.086-2.642 7.443c-.133.266-.335.416-.605.448-.318.037-.567-.083-.747-.36l-4.285-6.42.847 6.957a.715.715 0 0 1-.152.553.734.734 0 0 1-.509.278ZM28.554 18.611a.733.733 0 0 1-.504-.285.715.715 0 0 1-.144-.555l1.33-9.632a.69.69 0 0 1 .288-.498.739.739 0 0 1 .563-.141l6.518.875c.221.03.39.12.506.271a.647.647 0 0 1 .133.525.634.634 0 0 1-.268.457c-.152.105-.338.143-.56.113l-5.767-.775-.477 3.458 4.138.556c.221.03.39.12.506.27a.63.63 0 0 1 .135.511.68.68 0 0 1-.27.471c-.152.105-.338.143-.56.113l-4.138-.556-.49 3.557 5.767.775c.221.03.39.116.508.257a.63.63 0 0 1 .135.51.698.698 0 0 1-.272.486c-.152.105-.338.143-.56.113l-6.517-.876ZM46.674 19.395a.74.74 0 0 1-.563-.141.72.72 0 0 1-.29-.498L44.49 9.125a.686.686 0 0 1 .144-.556.734.734 0 0 1 .504-.285l2.595-.35c.721-.097 1.381-.031 1.98.197a3.256 3.256 0 0 1 1.468 1.05c.39.478.632 1.064.727 1.756.095.683.005 1.309-.269 1.877a3.283 3.283 0 0 1-1.251 1.357l2.69 3.203c.21.251.271.509.18.773-.092.253-.292.401-.6.443a.74.74 0 0 1-.698-.269l-3.023-3.593-.26.036-1.845.248.49 3.543a.715.715 0 0 1-.143.555.704.704 0 0 1-.504.285Zm-.032-5.749 1.846-.248c.653-.088 1.167-.341 1.54-.758.372-.427.518-.93.438-1.509-.087-.626-.37-1.11-.848-1.45-.477-.342-1.043-.469-1.697-.38l-1.846.248.567 4.097ZM62.63 18.791a.734.734 0 0 1-.513-.268.715.715 0 0 1-.161-.551l1.014-9.67a.69.69 0 0 1 .272-.506.739.739 0 0 1 .558-.16l2.606.267c.724.074 1.35.291 1.877.653.529.353.92.806 1.174 1.362.264.556.359 1.181.286 1.877-.072.685-.309 1.272-.711 1.76-.401.479-.915.821-1.542 1.027l1.847 3.74c.144.293.141.557-.01.792-.15.225-.38.322-.69.29a.736.736 0 0 1-.613-.423l-2.076-4.196-.261-.027-1.853-.189-.373 3.557a.72.72 0 0 1-.272.506.708.708 0 0 1-.558.16Zm1.348-5.593 1.853.19c.656.066 1.215-.06 1.678-.378.463-.328.726-.782.787-1.363.066-.629-.093-1.165-.476-1.608-.382-.443-.902-.698-1.558-.765l-1.853-.19-.431 4.114ZM80.985 18.987a.717.717 0 0 1-.495-.274.715.715 0 0 1-.155-.552l.388-3.324-3.167-6.359c-.102-.214-.129-.405-.08-.573a.657.657 0 0 1 .296-.4.78.78 0 0 1 .512-.115c.163.019.29.072.377.159.088.077.168.188.24.33l2.763 5.678 4.067-4.958a.753.753 0 0 1 .706-.28c.174.02.311.098.412.234a.707.707 0 0 1 .15.466.81.81 0 0 1-.205.511l-4.582 5.477-.388 3.324a.72.72 0 0 1-.279.503.739.739 0 0 1-.56.153Z"/></mask><path d="M9.023 19.648a.739.739 0 0 1-.56-.15.72.72 0 0 1-.282-.503L7.007 9.344a.686.686 0 0 1 .152-.554.734.734 0 0 1 .509-.277c.289-.034.527.073.713.32l5.324 7.975 3.143-8.978c.122-.284.327-.443.616-.478a.739.739 0 0 1 .561.151.69.69 0 0 1 .281.502l1.175 9.652a.693.693 0 0 1-.167.554.717.717 0 0 1-.494.276.739.739 0 0 1-.561-.15.72.72 0 0 1-.281-.502l-.862-7.086-2.642 7.443c-.133.266-.335.416-.605.448-.318.037-.567-.083-.747-.36l-4.285-6.42.847 6.957a.715.715 0 0 1-.152.553.734.734 0 0 1-.509.278ZM28.554 18.611a.733.733 0 0 1-.504-.285.715.715 0 0 1-.144-.555l1.33-9.632a.69.69 0 0 1 .288-.498.739.739 0 0 1 .563-.141l6.518.875c.221.03.39.12.506.271a.647.647 0 0 1 .133.525.634.634 0 0 1-.268.457c-.152.105-.338.143-.56.113l-5.767-.775-.477 3.458 4.138.556c.221.03.39.12.506.27a.63.63 0 0 1 .135.511.68.68 0 0 1-.27.471c-.152.105-.338.143-.56.113l-4.138-.556-.49 3.557 5.767.775c.221.03.39.116.508.257a.63.63 0 0 1 .135.51.698.698 0 0 1-.272.486c-.152.105-.338.143-.56.113l-6.517-.876ZM46.674 19.395a.74.74 0 0 1-.563-.141.72.72 0 0 1-.29-.498L44.49 9.125a.686.686 0 0 1 .144-.556.734.734 0 0 1 .504-.285l2.595-.35c.721-.097 1.381-.031 1.98.197a3.256 3.256 0 0 1 1.468 1.05c.39.478.632 1.064.727 1.756.095.683.005 1.309-.269 1.877a3.283 3.283 0 0 1-1.251 1.357l2.69 3.203c.21.251.271.509.18.773-.092.253-.292.401-.6.443a.74.74 0 0 1-.698-.269l-3.023-3.593-.26.036-1.845.248.49 3.543a.715.715 0 0 1-.143.555.704.704 0 0 1-.504.285Zm-.032-5.749 1.846-.248c.653-.088 1.167-.341 1.54-.758.372-.427.518-.93.438-1.509-.087-.626-.37-1.11-.848-1.45-.477-.342-1.043-.469-1.697-.38l-1.846.248.567 4.097ZM62.63 18.791a.734.734 0 0 1-.513-.268.715.715 0 0 1-.161-.551l1.014-9.67a.69.69 0 0 1 .272-.506.739.739 0 0 1 .558-.16l2.606.267c.724.074 1.35.291 1.877.653.529.353.92.806 1.174 1.362.264.556.359 1.181.286 1.877-.072.685-.309 1.272-.711 1.76-.401.479-.915.821-1.542 1.027l1.847 3.74c.144.293.141.557-.01.792-.15.225-.38.322-.69.29a.736.736 0 0 1-.613-.423l-2.076-4.196-.261-.027-1.853-.189-.373 3.557a.72.72 0 0 1-.272.506.708.708 0 0 1-.558.16Zm1.348-5.593 1.853.19c.656.066 1.215-.06 1.678-.378.463-.328.726-.782.787-1.363.066-.629-.093-1.165-.476-1.608-.382-.443-.902-.698-1.558-.765l-1.853-.19-.431 4.114ZM80.985 18.987a.717.717 0 0 1-.495-.274.715.715 0 0 1-.155-.552l.388-3.324-3.167-6.359c-.102-.214-.129-.405-.08-.573a.657.657 0 0 1 .296-.4.78.78 0 0 1 .512-.115c.163.019.29.072.377.159.088.077.168.188.24.33l2.763 5.678 4.067-4.958a.753.753 0 0 1 .706-.28c.174.02.311.098.412.234a.707.707 0 0 1 .15.466.81.81 0 0 1-.205.511l-4.582 5.477-.388 3.324a.72.72 0 0 1-.279.503.739.739 0 0 1-.56.153Z" fill="#8B48CF"/><path d="M9.023 19.648a.739.739 0 0 1-.56-.15.72.72 0 0 1-.282-.503L7.007 9.344a.686.686 0 0 1 .152-.554.734.734 0 0 1 .509-.277c.289-.034.527.073.713.32l5.324 7.975 3.143-8.978c.122-.284.327-.443.616-.478a.739.739 0 0 1 .561.151.69.69 0 0 1 .281.502l1.175 9.652a.693.693 0 0 1-.167.554.717.717 0 0 1-.494.276.739.739 0 0 1-.561-.15.72.72 0 0 1-.281-.502l-.862-7.086-2.642 7.443c-.133.266-.335.416-.605.448-.318.037-.567-.083-.747-.36l-4.285-6.42.847 6.957a.715.715 0 0 1-.152.553.734.734 0 0 1-.509.278ZM28.554 18.611a.733.733 0 0 1-.504-.285.715.715 0 0 1-.144-.555l1.33-9.632a.69.69 0 0 1 .288-.498.739.739 0 0 1 .563-.141l6.518.875c.221.03.39.12.506.271a.647.647 0 0 1 .133.525.634.634 0 0 1-.268.457c-.152.105-.338.143-.56.113l-5.767-.775-.477 3.458 4.138.556c.221.03.39.12.506.27a.63.63 0 0 1 .135.511.68.68 0 0 1-.27.471c-.152.105-.338.143-.56.113l-4.138-.556-.49 3.557 5.767.775c.221.03.39.116.508.257a.63.63 0 0 1 .135.51.698.698 0 0 1-.272.486c-.152.105-.338.143-.56.113l-6.517-.876ZM46.674 19.395a.74.74 0 0 1-.563-.141.72.72 0 0 1-.29-.498L44.49 9.125a.686.686 0 0 1 .144-.556.734.734 0 0 1 .504-.285l2.595-.35c.721-.097 1.381-.031 1.98.197a3.256 3.256 0 0 1 1.468 1.05c.39.478.632 1.064.727 1.756.095.683.005 1.309-.269 1.877a3.283 3.283 0 0 1-1.251 1.357l2.69 3.203c.21.251.271.509.18.773-.092.253-.292.401-.6.443a.74.74 0 0 1-.698-.269l-3.023-3.593-.26.036-1.845.248.49 3.543a.715.715 0 0 1-.143.555.704.704 0 0 1-.504.285Zm-.032-5.749 1.846-.248c.653-.088 1.167-.341 1.54-.758.372-.427.518-.93.438-1.509-.087-.626-.37-1.11-.848-1.45-.477-.342-1.043-.469-1.697-.38l-1.846.248.567 4.097ZM62.63 18.791a.734.734 0 0 1-.513-.268.715.715 0 0 1-.161-.551l1.014-9.67a.69.69 0 0 1 .272-.506.739.739 0 0 1 .558-.16l2.606.267c.724.074 1.35.291 1.877.653.529.353.92.806 1.174 1.362.264.556.359 1.181.286 1.877-.072.685-.309 1.272-.711 1.76-.401.479-.915.821-1.542 1.027l1.847 3.74c.144.293.141.557-.01.792-.15.225-.38.322-.69.29a.736.736 0 0 1-.613-.423l-2.076-4.196-.261-.027-1.853-.189-.373 3.557a.72.72 0 0 1-.272.506.708.708 0 0 1-.558.16Zm1.348-5.593 1.853.19c.656.066 1.215-.06 1.678-.378.463-.328.726-.782.787-1.363.066-.629-.093-1.165-.476-1.608-.382-.443-.902-.698-1.558-.765l-1.853-.19-.431 4.114ZM80.985 18.987a.717.717 0 0 1-.495-.274.715.715 0 0 1-.155-.552l.388-3.324-3.167-6.359c-.102-.214-.129-.405-.08-.573a.657.657 0 0 1 .296-.4.78.78 0 0 1 .512-.115c.163.019.29.072.377.159.088.077.168.188.24.33l2.763 5.678 4.067-4.958a.753.753 0 0 1 .706-.28c.174.02.311.098.412.234a.707.707 0 0 1 .15.466.81.81 0 0 1-.205.511l-4.582 5.477-.388 3.324a.72.72 0 0 1-.279.503.739.739 0 0 1-.56.153Z" stroke="#FFFCF3" stroke-width="10" stroke-linejoin="round" mask="url(#b)"/></svg>