<svg width="20" height="20" viewBox="0 0 20 20" fill="none" xmlns="http://www.w3.org/2000/svg"><path d="M5.94 6.589c-.056-.806.122-1.599.595-2.237.41-.579.944-.895 1.588-1.08.542-.16.897.037 1.054.64.223.9.542 1.802.657 2.75.037.418-.233 1.008-.525 1.312-.733.722-.581 1.247-.025 2.339.173.352.447.96.98 1.766.557.812.851 1.248 1.566.878.794-.4 1.372-.142 1.971.502.406.466.853.866 1.259 1.331.586.693.56 1.17.101 1.659-.826.9-2.19 1.198-3.205.595a6.52 6.52 0 0 1-1.563-1.26c-1.96-2.232-3.372-4.828-4.223-7.757a7.387 7.387 0 0 1-.23-1.438Z" stroke="#120044" stroke-miterlimit="10"/></svg>