<svg width="20" height="20" viewBox="0 0 20 20" fill="none" xmlns="http://www.w3.org/2000/svg"><path d="M9.674 12.105c2.316 0 4.21-2.273 4.21-5.052C13.884 4.273 11.99 2 9.674 2c-2.316 0-4.21 2.274-4.21 5.053s1.894 5.052 4.21 5.052Zm0-8.842c1.642 0 2.947 1.684 2.947 3.79 0 2.105-1.305 3.79-2.947 3.79-1.642 0-2.948-1.685-2.948-3.79 0-2.106 1.306-3.79 2.948-3.79Z" fill="#120044"/><path d="M13.505 11.684c-.337-.042-.673.21-.673.548-.043.337.21.673.547.673.126 0 3.284.38 3.621 3.79H2.305c.337-3.41 3.453-3.79 3.621-3.79.337-.042.59-.336.548-.673-.042-.337-.337-.59-.674-.548-.042 0-4.8.548-4.8 5.685 0 .336.295.631.632.631h16a.648.648 0 0 0 .631-.631c.042-5.137-4.674-5.685-4.758-5.685Z" fill="#120044"/></svg>