<svg width="147" height="84" viewBox="0 0 147 84" fill="none" xmlns="http://www.w3.org/2000/svg"><path d="M94.53 13.825c-7.92-.278-15.467-2.874-22.673-5.705C64.651 5.29 57.514 2.138 49.782.634c-4.975-.968-10.662-1.105-14.67 1.6-3.856 2.603-5.103 7.097-5.772 11.265-.505 3.136-.8 6.439.58 9.375.959 2.037 2.661 3.752 3.839 5.704 4.096 6.796 1.2 15.174-3.239 21.808-2.082 3.105-4.5 6.074-6.104 9.381-1.605 3.307-2.351 7.11-.946 10.488 1.395 3.346 4.715 5.866 8.32 7.637 7.307 3.593 15.92 4.622 24.313 5.205 18.586 1.29 37.27.728 55.907.172 6.896-.207 13.822-.416 20.606-1.499 3.768-.6 7.658-1.553 10.393-3.855 3.473-2.921 4.334-7.87 2.009-11.533-3.903-6.145-14.695-7.671-17.422-14.266-1.501-3.63.04-7.674 2.222-11.04 4.682-7.222 12.527-13.558 12.94-21.813.287-5.674-3.488-11.348-9.323-14.03-6.113-2.813-14.588-2.46-19.099 2.196-4.649 4.798-12.81 6.643-19.805 6.396ZM13.915 1.82s13.933-.852 12.29 9.051c0 0 .326 1.746-1.237 2.545 0 0-.025-.728-1.435-.485-.5.085-1.008.11-1.514.073a3.116 3.116 0 0 1-1.85-.774s-3.91-1.636-5.435-8.134c0 0-1.126-1.417-1.082-1.78l2.351 1.018s-.803 1.721-.17 3.151c0 0 .076-3.089.527-3.016.092.016 1.222.597 1.222.597s-1.382 2.997-.34 5.175c0 0-.395-3.693.772-4.959l1.655.981s-1.616 3.094-.52 5.621c0 0-.287-3.874.86-5.382l1.5 1.185s-1.517 3.055-.592 5.146c0 0 .12-4.51.917-4.85 0 0 1.312 1.174 1.513 1.655 0 0-1.04 2.214-.395 3.384 0 0 .395-3.004.718-3.019 0 0 1.308 1.992 1.444 3.355 0 0-.057-2.03-1.127-3.545 0 0 1.263.22 2.008 1.052 0 0-.204-1.409-2.325-1.53 0 0-1.08-1.51-1.37-1.601 0 0 2.11-.18 3.39.396 0 0-1.127-1.329-3.776-.728l-1.48-1.225s2.777-.387 3.954.04c0 0-1.355-1.175-4.354-.32l-1.615-.975s2.368-.518 3.78-.33c0 0-1.49-.815-4.252.068l-1.148-.525s1.736-.347 2.244-.4c.507-.054.535-.198.535-.198a5.946 5.946 0 0 0-3.26.368s-2.445-.928-2.403-1.084Z" fill="#F5F2F8"/><path d="M21.718 28.314s6.295-.386 5.553 4.09c0 0 .144.79-.56 1.148 0 0-.01-.331-.645-.22-.226.04-.455.051-.684.034a1.411 1.411 0 0 1-.836-.349s-1.77-.742-2.458-3.676c0 0-.51-.64-.49-.803l1.063.46s-.363.776-.077 1.422c0 0 .034-1.395.238-1.362.041.008.552.27.552.27s-.624 1.354-.153 2.338c0 0-.178-1.668.348-2.241l.749.444s-.736 1.398-.24 2.547c0 0-.127-1.746.392-2.432l.678.535s-.685 1.38-.268 2.328c0 0 .055-2.037.415-2.193 0 0 .592.53.684.748 0 0-.47 1.001-.18 1.53 0 0 .18-1.358.326-1.364 0 0 .591.9.653 1.516 0 0-.026-.918-.51-1.6.341.066.655.231.904.475 0 0-.092-.635-1.05-.69 0 0-.487-.683-.618-.728 0 0 .952-.082 1.53.179 0 0-.507-.6-1.705-.328l-.67-.554s1.255-.173 1.788.02c0 0-.613-.532-1.967-.146l-.729-.437s1.07-.233 1.707-.145c0 0-.672-.368-1.92.03l-.521-.237s.783-.157 1.014-.182c.231-.024.241-.088.241-.088a2.68 2.68 0 0 0-1.472.165s-1.105-.435-1.082-.505ZM.12 4.396s6.295-.384 5.553 4.09c0 0 .144.79-.56 1.15 0 0-.01-.331-.645-.22-.225.039-.455.05-.684.034a1.412 1.412 0 0 1-.836-.35S1.178 8.358.49 5.424c0 0-.51-.64-.49-.805l1.063.46s-.362.778-.077 1.424c0 0 .034-1.395.238-1.362.042 0 .552.27.552.27s-.624 1.354-.153 2.337c0 0-.178-1.668.348-2.24l.749.436s-.73 1.4-.235 2.54c0 0-.128-1.745.391-2.43l.679.535s-.686 1.379-.268 2.328c0 0 .054-2.037.414-2.191 0 0 .592.53.684.747 0 0-.47 1.001-.179 1.53 0 0 .18-1.358.326-1.365 0 0 .59.9.652 1.516 0 0-.026-.917-.509-1.6.34.065.655.23.904.475 0 0-.092-.637-1.05-.692 0 0-.488-.683-.618-.728 0 0 .952-.081 1.53.18 0 0-.508-.602-1.705-.328l-.665-.549s1.255-.174 1.788.02c0 0-.613-.532-1.967-.146l-.728-.437s1.07-.234 1.706-.145c0 0-.672-.368-1.92.03l-.52-.237s.784-.155 1.013-.18c.23-.025.241-.089.241-.089a2.68 2.68 0 0 0-1.477.157S.1 4.467.12 4.396Z" fill="#F5F2F8"/><path d="M84.895 19.395c-3.98 0-7.72 1.55-10.533 4.363-5.808 5.808-5.808 15.258 0 21.067a14.8 14.8 0 0 0 10.533 4.362 14.8 14.8 0 0 0 10.533-4.362c5.808-5.809 5.808-15.259 0-21.067a14.8 14.8 0 0 0-10.533-4.363Zm0 31.403a16.398 16.398 0 0 1-11.672-4.835c-6.436-6.435-6.436-16.908 0-23.344a16.398 16.398 0 0 1 11.672-4.834c4.409 0 8.554 1.717 11.672 4.834 6.436 6.436 6.436 16.909 0 23.344a16.398 16.398 0 0 1-11.672 4.835Z" fill="#3C2F22"/><path d="m98.56 21.765-1.139-1.139L71.23 46.818l1.138 1.138L98.56 21.765ZM100.93 50.326c-.609.609-1.67.609-2.278 0a1.6 1.6 0 0 1-.471-1.139c0-.43.167-.834.472-1.138a1.6 1.6 0 0 1 1.138-.472c.43 0 .834.168 1.139.472a1.6 1.6 0 0 1 .471 1.138 1.6 1.6 0 0 1-.471 1.139Zm5.705-16.035c0-4.9-1.591-9.526-4.602-13.377l-1.269.991c2.788 3.566 4.261 7.849 4.261 12.386 0 4.355-1.361 8.474-3.934 11.95a3.211 3.211 0 0 0-3.577.67 3.197 3.197 0 0 0-.944 2.276c0 .456.097.896.275 1.3a20.17 20.17 0 0 1-11.95 3.934c-4.538 0-8.822-1.473-12.388-4.261l-.991 1.268a21.496 21.496 0 0 0 12.574 4.587v3.64h1.61v-3.641a21.786 21.786 0 0 0 12.146-4.263 3.195 3.195 0 0 0 1.945.657c.86 0 1.669-.335 2.277-.944a3.197 3.197 0 0 0 .944-2.277c0-.713-.233-1.389-.659-1.946a21.509 21.509 0 0 0 4.282-12.95Z" fill="#FF7415"/><path d="M100.93 20.534c-.609.608-1.67.608-2.277 0a1.6 1.6 0 0 1-.472-1.139c0-.43.167-.834.472-1.138a1.599 1.599 0 0 1 1.138-.472c.43 0 .834.167 1.139.472.304.304.472.708.472 1.138 0 .43-.168.834-.472 1.139Zm1.138-3.416a3.197 3.197 0 0 0-2.277-.944c-.86 0-1.67.335-2.277.944a3.197 3.197 0 0 0-.944 2.277c0 .86.335 1.669.944 2.277a3.197 3.197 0 0 0 2.277.944c.86 0 1.669-.335 2.277-.944a3.197 3.197 0 0 0 .944-2.277c0-.86-.335-1.669-.944-2.277ZM71.137 50.326c-.609.609-1.669.609-2.277 0a1.6 1.6 0 0 1-.472-1.139c0-.43.168-.834.472-1.138A1.6 1.6 0 0 1 70 47.577a1.6 1.6 0 0 1 1.138.472 1.6 1.6 0 0 1 .472 1.138 1.6 1.6 0 0 1-.472 1.139ZM70 45.966c-.86 0-1.67.336-2.277.944a3.197 3.197 0 0 0-.944 2.277c0 .86.335 1.67.944 2.278a3.197 3.197 0 0 0 2.277.943c.86 0 1.668-.335 2.277-.944a3.197 3.197 0 0 0 .943-2.277c0-.86-.334-1.669-.943-2.277a3.197 3.197 0 0 0-2.277-.943ZM91.739 66.097H78.05v-.806c0-.888.723-1.61 1.61-1.61h10.468c.888 0 1.61.722 1.61 1.61v.806Zm-6.844-5.637c.888 0 1.61.722 1.61 1.61h-3.22c0-.888.721-1.61 1.61-1.61Zm5.233 1.61h-2.013a3.225 3.225 0 0 0-3.22-3.22 3.225 3.225 0 0 0-3.221 3.22H79.66a3.225 3.225 0 0 0-3.221 3.221v2.416h16.91v-2.416a3.225 3.225 0 0 0-3.222-3.22ZM94.96 43.217 75.964 24.222a14.837 14.837 0 0 1 4.944-.841 14.8 14.8 0 0 1 10.535 4.363c4.042 4.042 5.383 10.127 3.517 15.473Zm-6.085 1.984c-3.976 0-7.715-1.55-10.528-4.362-4.044-4.045-5.383-10.127-3.513-15.47l18.988 18.988a14.818 14.818 0 0 1-4.947.844Zm-7.967-23.43c-2.327 0-4.58.475-6.698 1.413l-.284.126-.126.283c-2.76 6.198-1.39 13.586 3.408 18.385a16.392 16.392 0 0 0 11.667 4.833c2.335 0 4.595-.48 6.718-1.425l.283-.126.126-.283c2.745-6.198 1.37-13.58-3.42-18.372a16.4 16.4 0 0 0-11.674-4.835Z" fill="#3C2F22"/><path d="m88.453 27.316-3.558 3.559-6.263-6.263.045-.046c3.45-.239 6.932.72 9.776 2.75ZM78.062 37.707l3.416-3.416-6.262-6.263.096-.097c-.239 3.45.595 6.807 2.75 9.776ZM71.707 17.687a2.415 2.415 0 1 0-3.416 3.416 2.415 2.415 0 0 0 3.416-3.416Z" fill="#E0E0E0"/></svg>