<svg width="149" height="97" viewBox="0 0 149 97" fill="none" xmlns="http://www.w3.org/2000/svg"><path d="M86.588 15.993c-9.55-.322-18.644-3.322-27.329-6.604C50.574 6.108 41.972 2.471 32.65.733 26.656-.387 19.8-.544 14.97 2.583c-4.649 3.01-6.15 8.204-6.959 13.025-.607 3.627-.964 7.443.7 10.839 1.156 2.356 3.208 4.337 4.622 6.595 4.938 7.857 1.453 17.543-3.903 25.215-2.51 3.598-5.422 7.03-7.358 10.86C.136 72.949-.757 77.338.945 81.252c1.68 3.872 5.679 6.781 10.02 8.828 8.8 4.149 19.177 5.339 29.297 6.012 22.401 1.49 44.923.845 67.384.199 8.312-.24 16.661-.482 24.838-1.733 4.542-.694 9.229-1.8 12.527-4.457 4.185-3.378 5.223-9.099 2.418-13.335-4.704-7.105-17.71-8.865-20.997-16.495-1.81-4.196.049-8.872 2.68-12.763 5.641-8.352 15.097-15.675 15.595-25.22.343-6.553-4.203-13.121-11.232-16.223-7.369-3.25-17.585-2.842-23.021 2.54-5.598 5.542-15.435 7.673-23.866 7.39Z" fill="#F5F2F8"/><path d="M136.425 55.919c1.113 0 2.016-.879 2.016-1.962 0-1.084-.903-1.962-2.016-1.962-1.114 0-2.017.878-2.017 1.962 0 1.083.903 1.962 2.017 1.962ZM143.639 48.496c1.867 0 3.38-1.473 3.38-3.29 0-1.816-1.513-3.289-3.38-3.289s-3.381 1.473-3.381 3.29c0 1.816 1.514 3.289 3.381 3.289ZM139.164 64.456c1.867 0 3.38-1.472 3.38-3.289 0-1.816-1.513-3.29-3.38-3.29s-3.381 1.474-3.381 3.29c0 1.817 1.514 3.29 3.381 3.29ZM4.787 49.058c2.644 0 4.787-2.086 4.787-4.658 0-2.572-2.143-4.658-4.787-4.658S0 41.828 0 44.4c0 2.572 2.143 4.658 4.787 4.658Z" fill="#F5F2F8"/><path d="M59.652 72.245a5.065 5.065 0 0 1-5.058-5.06 5.064 5.064 0 0 1 5.058-5.058c2.79 0 5.06 2.27 5.06 5.058 0 2.79-2.27 5.06-5.06 5.06Z" fill="#fff"/><path d="m64.774 67.646-.086-.926c-.235-2.576-2.449-4.592-5.037-4.592-2.586 0-4.798 2.016-5.033 4.592l-.086.926h-4.537a1.842 1.842 0 0 1-1.841-1.84V38.211c0-1.016.826-1.84 1.841-1.84H77.59c1.014 0 1.84.825 1.84 1.84v4.25l-.011.075c-.015.091-.03.18-.03.274v2.66l.04 1.019v21.156H64.775Z" fill="#FC6E51"/><path d="M91.847 72.245c-2.791 0-5.06-2.27-5.06-5.06a5.064 5.064 0 0 1 5.06-5.058 5.064 5.064 0 0 1 5.059 5.058c0 2.79-2.27 5.06-5.06 5.06Z" fill="#fff"/><path d="m96.967 67.646-.086-.926c-.234-2.576-2.447-4.592-5.034-4.592-2.589 0-4.801 2.016-5.036 4.592l-.086.926h-7.297V44.65h12.879a1.84 1.84 0 0 1 1.838 1.84l3.68 8.278 5.519.92h.149l.118.041c.912.27 1.572 1.813 1.572 2.718v5.52h-5.42 5.42v1.838a1.84 1.84 0 0 1-1.839 1.84h-6.377Z" fill="#FFB933"/><path d="M103.345 68.632h-5.52v-1.973h5.52c.47 0 .852-.383.852-.854v-7.358c0-.698-.581-1.701-.868-1.774a.83.83 0 0 1-.147-.012l-5.52-.92a.986.986 0 0 1-.739-.572l-3.679-8.279a.987.987 0 0 1-.085-.4.853.853 0 0 0-.852-.854H79.428v-1.972h12.88a2.828 2.828 0 0 1 2.815 2.595l3.387 7.623 4.931.822c1.644.083 2.728 2.28 2.728 3.743v7.358a2.828 2.828 0 0 1-2.824 2.827ZM53.673 68.632h-3.678a2.83 2.83 0 0 1-2.827-2.827V53.847h1.972v11.958c0 .471.384.854.855.854h3.678v1.973ZM86.787 68.632H64.712v-1.973h22.075v1.973Z" fill="#3C2F22"/><path d="M59.651 73.231a6.052 6.052 0 0 1-6.044-6.046 6.051 6.051 0 0 1 6.044-6.044 6.053 6.053 0 0 1 6.047 6.044 6.053 6.053 0 0 1-6.047 6.046Zm0-10.117a4.076 4.076 0 0 0-4.071 4.071 4.077 4.077 0 0 0 4.071 4.074 4.08 4.08 0 0 0 4.075-4.074 4.077 4.077 0 0 0-4.075-4.071ZM91.847 73.231a6.053 6.053 0 0 1-6.046-6.046 6.052 6.052 0 0 1 6.046-6.044 6.052 6.052 0 0 1 6.045 6.044 6.052 6.052 0 0 1-6.045 6.046Zm0-10.117a4.077 4.077 0 0 0-4.073 4.071 4.079 4.079 0 0 0 4.073 4.074 4.078 4.078 0 0 0 4.073-4.074 4.076 4.076 0 0 0-4.073-4.071ZM104.265 64.953h-5.52v-1.972h5.52v1.972ZM80.415 66.725h-1.973V44.65h1.973v22.075ZM85.868 60.045h-2.762v-1.972h2.762v1.972Z" fill="#3C2F22"/><path d="M80.415 58.447h-1.973V38.21a.854.854 0 0 0-.853-.853H49.995a.855.855 0 0 0-.855.853v20.236h-1.973V38.21a2.83 2.83 0 0 1 2.828-2.825h27.594a2.829 2.829 0 0 1 2.826 2.825v20.236Z" fill="#3C2F22"/><path d="M76.67 42.876H49.994v-1.972h26.674v1.972ZM76.67 50.236H49.994v-1.973h26.674v1.973ZM76.67 57.593H49.994v-1.972h26.674v1.972Z" fill="#3C2F22"/><path d="M82.189 54.87c0 .508.412.92.917.92h10.12a.919.919 0 0 0 .92-.92l-2.76-5.52a.92.92 0 0 0-.92-.92h-7.36a.92.92 0 0 0-.917.92v5.52Z" fill="#3BAFDA"/><path d="M93.227 56.776h-10.12a1.907 1.907 0 0 1-1.904-1.906v-5.52c0-1.051.854-1.906 1.903-1.906h7.36c.96 0 1.756.712 1.888 1.635l2.674 5.35a.984.984 0 0 1 .104.44c0 1.051-.855 1.907-1.905 1.907Zm-2.826-7.426-7.294.066.068 5.454 9.836-.066-2.506-5.013a.983.983 0 0 1-.104-.441Z" fill="#3C2F22"/><path d="M57.491 26.986c5.25 0 9.506 4.257 9.506 9.506a9.505 9.505 0 0 1-9.506 9.505 9.504 9.504 0 0 1-9.505-9.505 9.505 9.505 0 0 1 9.505-9.506Z" fill="#fff"/><path d="M57.491 46.983C51.706 46.983 47 42.277 47 36.49 47 30.707 51.706 26 57.491 26c5.786 0 10.493 4.707 10.493 10.491 0 5.786-4.707 10.492-10.493 10.492Zm0-19.01c-4.697 0-8.519 3.822-8.519 8.518 0 4.698 3.822 8.52 8.52 8.52 4.698 0 8.52-3.822 8.52-8.52 0-4.696-3.822-8.519-8.52-8.519Z" fill="#3C2F22"/><path d="M62.923 37.447H56.49v-8.383h1.972v6.41h4.461v1.973Z" fill="#3C2F22"/></svg>