<svg width="150" height="94" viewBox="0 0 150 94" fill="none" xmlns="http://www.w3.org/2000/svg"><path d="M40.528.09c-4.823-.177-9.862-.302-14.223 1.76-4.361 2.06-7.733 7.054-6.27 11.644.477 1.497 1.407 2.801 2.19 4.164 3.92 6.813-3.898 12.62-7.532 19.59-2.797 5.365-7.539 9.448-10.952 14.447-3.414 4.999-5.353 11.927-1.995 16.963 2.299 3.448 6.566 5.126 10.7 5.533 4.133.406 8.29-.234 12.442-.398a53.747 53.747 0 0 1 23.53 4.435c10.198 4.457 18.983 12.081 29.72 15.023 1.29.353 2.637.638 3.955.398 2.338-.424 4.038-2.351 5.868-3.873 5.843-4.823 13.933-5.723 21.518-5.947 7.584-.224 15.484-.051 22.34-3.298 5.986-2.834 10.594-8.107 13.46-14.062 2.865-5.956 4.11-12.575 4.579-19.166.277-3.922.268-7.972-1.141-11.645-1.583-4.128-4.794-7.416-8.162-10.29-3.519-3.005-7.354-5.727-11.699-7.348-5.189-1.936-10.823-2.213-16.348-2.672a225.24 225.24 0 0 1-33.63-5.383C68.383 7.464 64.86 7.732 55.303 2.638 50.506.08 45.936.284 40.528.09Z" fill="#F5F2F8"/><path d="m93.253 27.88.003-.007.003-.008c.962-2.525 2.743-3.484 4.419-4.387a4.373 4.373 0 0 0 2.027-2.287l.001.003c.356.618.807 1.493 1.191 2.52.773 2.067 1.241 4.66.22 7.003l-.001.001c-.988 2.285-2.18 3.064-3.042 3.32a2.814 2.814 0 0 1-1.096.105 2.245 2.245 0 0 1-.384-.075h-.002l-2.458-1.106-.015-.02a6.157 6.157 0 0 1-.832-1.439c-.387-.952-.614-2.23-.034-3.623Z" fill="#F7E5C6" stroke="#3C2F22"/><path d="M97.442 23.038c-1.68.904-3.617 1.937-4.65 4.65 1.033-.388 2.583-.646 4.779.129 2.066.775 3.229 2.066 3.875 3.358 0-.13.129-.13.129-.258 2.196-5.038-2.067-10.98-2.067-10.98s-.129 1.938-2.066 3.1Z" fill="#FFF5E3"/><path d="M93.825 33.37s-2.325-2.582-1.033-5.682c1.033-2.713 2.97-3.746 4.65-4.65 1.937-1.034 2.066-3.1 2.066-3.1s4.263 5.941 2.067 10.979c-2.067 4.779-5.167 3.616-5.167 3.616l-2.583-1.162Z" stroke="#3C2F22" stroke-width="2" stroke-miterlimit="10" stroke-linecap="round" stroke-linejoin="round"/><path d="M96.02 34.146s1.68-1.034 2.972-4.392M94.858 33.758s-.387-2.583.517-4.779" stroke="#3C2F22" stroke-width="2" stroke-miterlimit="10" stroke-linecap="round" stroke-linejoin="round"/><path opacity=".15" d="M90.49 76.513a3.608 3.608 0 0 1-.692.276c-.712.22-1.767.424-3.101.598-2.66.347-6.352.563-10.439.563s-7.778-.216-10.439-.563c-1.334-.174-2.389-.379-3.1-.598a3.61 3.61 0 0 1-.693-.276c.147-.084.374-.178.693-.277.711-.22 1.767-.424 3.1-.598 2.661-.347 6.352-.563 10.44-.563 4.087 0 7.777.216 10.438.563 1.334.174 2.39.379 3.1.598a3.6 3.6 0 0 1 .693.276Zm-28.615-.11.004.005a.022.022 0 0 1-.004-.005Zm0 .219s0-.002.004-.005a.026.026 0 0 1-.004.005Zm28.763-.005a.02.02 0 0 1 .004.005l-.004-.005Zm0-.209a.024.024 0 0 1 .004-.005l-.004.005Z" fill="#45413C" stroke="#3C2F22"/><path d="m57.03 46.882-.004.003c-2.927 1.639-6.618-.369-6.618-3.698V43.059c0-5.182 2.425-9.233 6.39-12.007 3.98-2.784 9.523-4.285 15.714-4.285 12.14 0 20.167 8.445 20.167 18.875 0 10.375-9.776 18.875-22.104 18.875-3.92 0-7.72-1.012-10.888-2.533-2.072-1.038-2.858-3.678-1.609-5.608l.006-.01 5.55-9.035c.537-.815.29-1.745-.255-2.31-.552-.573-1.477-.85-2.352-.33l-3.997 2.191Zm7.232 10.772c0 .968.526 1.815 1.316 2.403.79.588 1.867.939 3.06.939 1.132 0 2.205-.353 3.006-.935.797-.58 1.368-1.426 1.368-2.407 0-.968-.525-1.815-1.315-2.403-.79-.588-1.867-.939-3.06-.939-1.192 0-2.269.35-3.06.939-.79.588-1.315 1.435-1.315 2.403Z" fill="#F0D5A8" stroke="#3C2F22"/><path d="M72.512 30.142c11.625 0 19.634 7.62 20.538 17.308 0-.646.129-1.163.129-1.808 0-10.721-8.138-19.375-20.667-19.375-12.529 0-22.604 6.07-22.604 16.791v.13c0 .516.13.904.258 1.42 1.292-9.3 10.85-14.466 22.346-14.466Z" fill="#F7E5C6"/><path d="M72.512 26.267c-12.529 0-22.604 6.07-22.604 16.791v.13c0 3.745 4.133 5.941 7.363 4.133l4.004-2.196c1.291-.775 2.712.775 1.937 1.937l-5.554 9.042c-1.42 2.196-.517 5.167 1.809 6.33 3.229 1.55 7.104 2.583 11.108 2.583 12.529 0 22.604-8.655 22.604-19.375 0-10.721-8.267-19.375-20.667-19.375Zm-3.875 34.229c-2.195 0-3.875-1.292-3.875-2.842s1.68-2.842 3.875-2.842c2.196 0 3.875 1.292 3.875 2.842s-1.808 2.842-3.875 2.842Z" stroke="#3C2F22" stroke-width="2" stroke-miterlimit="10" stroke-linecap="round" stroke-linejoin="round"/><path d="M85.575 53.004c0 .573-.337 1.146-.994 1.598-.655.45-1.586.744-2.64.744-1.053 0-1.984-.294-2.639-.744-.657-.452-.994-1.025-.994-1.598 0-.572.337-1.146.994-1.597.654-.45 1.586-.744 2.64-.744 1.053 0 1.984.294 2.639.744.657.451.994 1.025.994 1.597Z" fill="#FF6242" stroke="#3C2F22"/><path d="M86.867 40.087c0 1.278-1.3 2.471-3.117 2.471-1.818 0-3.117-1.193-3.117-2.47 0-1.278 1.3-2.471 3.117-2.471 1.818 0 3.117 1.193 3.117 2.47Z" fill="#FF8A14" stroke="#3C2F22"/><path d="M62.842 36.212c0 1.203-1.237 2.342-2.988 2.342-1.75 0-2.987-1.14-2.987-2.342 0-1.202 1.236-2.341 2.987-2.341 1.75 0 2.988 1.14 2.988 2.341Z" fill="#6DD627" stroke="#3C2F22"/><path d="M75.63 32.983c0 .595-.317 1.17-.9 1.611-.583.443-1.411.73-2.347.73-.935 0-1.763-.287-2.346-.73-.583-.442-.9-1.016-.9-1.61 0-.595.317-1.17.9-1.612.583-.442 1.411-.73 2.346-.73.936 0 1.764.288 2.347.73s.9 1.017.9 1.611Z" fill="#FFE500" stroke="#3C2F22"/><path d="M84.606 51.41c.516.366.83.812.933 1.27-.854-.822-2.18-1.338-3.598-1.338-.983 0-1.91.245-2.638.664-.23.131-.444.283-.635.454.143-.38.434-.743.867-1.05.634-.451 1.531-.747 2.536-.747 1.004 0 1.901.296 2.535.747Z" fill="#E04122" stroke="#3C2F22"/><path d="M86.647 39.479c-.752-.655-1.814-1.054-2.897-1.054-1.256 0-2.364.459-3.207 1.258.224-1.14 1.389-2.066 3.078-2.066 1.586 0 2.71.817 3.026 1.862Z" fill="#EB6D00" stroke="#3C2F22"/><path d="M62.752 35.656a4.3 4.3 0 0 0-2.898-1.106 4.3 4.3 0 0 0-2.898 1.106c.313-.966 1.418-1.785 2.898-1.785 1.48 0 2.585.819 2.898 1.785Z" fill="#46B000" stroke="#3C2F22"/><path d="M74.857 31.379c.467.355.762.793.863 1.251-.803-.798-2.013-1.31-3.337-1.31-.926 0-1.794.25-2.476.674a3.62 3.62 0 0 0-.533.401c.139-.372.407-.722.794-1.016.584-.445 1.412-.737 2.344-.737.933 0 1.76.292 2.345.737Z" fill="#EBCB00" stroke="#3C2F22"/><path d="M81.941 55.846c2.283 0 4.134-1.272 4.134-2.842s-1.85-2.841-4.134-2.841c-2.282 0-4.133 1.272-4.133 2.841 0 1.57 1.85 2.842 4.133 2.842ZM83.75 43.058c1.997 0 3.617-1.33 3.617-2.97 0-1.641-1.62-2.971-3.617-2.971-1.998 0-3.617 1.33-3.617 2.97 0 1.641 1.62 2.971 3.617 2.971ZM59.854 39.054c1.926 0 3.488-1.272 3.488-2.842 0-1.569-1.562-2.841-3.488-2.841s-3.487 1.272-3.487 2.841c0 1.57 1.56 2.842 3.487 2.842ZM72.383 35.825c2.07 0 3.746-1.272 3.746-2.842s-1.677-2.841-3.746-2.841-3.745 1.272-3.745 2.841c0 1.57 1.676 2.842 3.745 2.842Z" stroke="#3C2F22" stroke-width="2" stroke-miterlimit="10" stroke-linecap="round" stroke-linejoin="round"/><path d="m81.393 73.275.002-.008 3.745-16.14v-.003c1.157-4.754 2.698-9.506 4.624-13.998l.002-.005.639-1.533c.561-1.107 1.736-1.699 2.862-1.289l.019.007.02.006c1.128.307 1.8 1.448 1.576 2.793l-.001.006-.257 1.672c-.898 4.868-2.308 9.485-4.106 14.11L84.45 74.256c-.277.637-1.153 1.065-1.972.875-.823-.322-1.268-1.12-1.085-1.855Z" fill="#8C4219" stroke="#3C2F22"/><path d="M83.233 74.446 86.98 58.3c1.163-4.78 2.713-9.558 4.65-14.08l.646-1.55c.517-1.162 1.68-1.807 2.842-1.678-.388-.517-.905-1.034-1.55-1.292-1.421-.387-2.971.258-3.488 1.55l-.646 1.55c-1.937 4.52-3.616 9.17-4.65 14.08l-3.746 16.145c-.258 1.033.388 2.196 1.421 2.454.259.13.646.13.904 0-.258-.129-.258-.646-.129-1.033Z" fill="#F0D5A8" fill-opacity=".5"/><path d="M82.33 75.608c-1.034-.387-1.68-1.42-1.422-2.454l3.746-16.146c1.163-4.779 2.713-9.558 4.65-14.079l.646-1.55c.646-1.292 2.067-2.067 3.487-1.55 1.421.388 2.196 1.808 1.938 3.358l-.258 1.68c-.905 4.908-2.325 9.558-4.134 14.208l-6.07 15.37c-.388.905-1.55 1.422-2.584 1.163Z" stroke="#3C2F22" stroke-width="2" stroke-miterlimit="10" stroke-linecap="round" stroke-linejoin="round"/><path d="m95.275 42.584-.012-.004-4.643-1.419c-.088-.03-.131-.08-.142-.102l-.003-.007v-.001l.002-.007a.146.146 0 0 1 .015-.028c.677-.952 1.599-2.798 1.999-4l.006-.018.005-.018c.268-1.072.402-2.275.402-3.092 0-.03.017-.103.144-.167.125-.062.34-.098.619-.005l.005.002 3.212 1.027c.248.102.404.237.476.35.061.095.063.165.022.248-.11.219-.227.425-.357.653-.103.18-.212.372-.33.594-.248.46-.493.981-.638 1.55-.207.628-.34 1.437-.436 2.208-.06.49-.11.994-.155 1.439-.025.258-.049.495-.071.7l-.003.027v.028a.041.041 0 0 1-.005.02.048.048 0 0 1-.015.016c-.016.01-.05.022-.097.006Z" fill="#DAEDF7" stroke="#3C2F22"/><path d="M92.017 41.638c.516-.905 1.55-2.713 1.937-3.875.258-1.034.388-2.196.388-2.971 0-.517.645-.775 1.42-.646l2.067.646a1.323 1.323 0 0 0-.775-.646l-3.23-1.034c-.774-.258-1.42.13-1.42.646 0 .775-.13 1.938-.387 2.971-.388 1.163-1.292 2.971-1.938 3.875-.258.388 0 .775.388.904l1.42.517c0-.13 0-.258.13-.387Z" fill="#E8F4FA"/><path d="M95.117 43.058c.387.13.775-.129.775-.516.129-1.163.258-3.1.645-4.263.259-1.033.905-1.937 1.292-2.712.258-.517-.13-1.034-.775-1.292l-3.23-1.033c-.774-.259-1.42.129-1.42.646 0 .775-.13 1.937-.387 2.97-.388 1.163-1.292 2.971-1.938 3.875-.258.388 0 .775.388.905l4.65 1.42Z" stroke="#3C2F22" stroke-width="2" stroke-miterlimit="10" stroke-linecap="round" stroke-linejoin="round"/></svg>