<svg width="119" height="101" viewBox="0 0 119 101" fill="none" xmlns="http://www.w3.org/2000/svg"><path d="M70.958 16.5c10.4 17.6 23 11.6 39 26 25 22.5-13.5 51-36.5 55.5-40.82 7.986-62.5-6.5-61-23.5s-24-27.5-6-53.5 51.5-26.5 64.5-4.5Z" fill="#F5F2F8"/><path fill-rule="evenodd" clip-rule="evenodd" d="m78.855 63.133-7.35-7.512a18.805 18.805 0 0 0 2.286-9.014C73.791 36.331 65.631 28 55.564 28c-10.066 0-18.227 8.33-18.227 18.607 0 3.269.831 6.338 2.281 9.006l-7.344 7.499c-.426.434-.326 1.343.1 1.776.38.39.673.326.673.326h6.433v6.567c.025.241.14.505.322.691.425.434 1.282.503 1.707.07l8.168-8.338a17.797 17.797 0 0 0 5.886 1.011c2.056 0 4.026-.363 5.87-1.004l8.184 8.365c.424.435 1.281.366 1.706-.07a1.21 1.21 0 0 0 .322-.692V65.24h6.434s.292.064.673-.325c.427-.436.528-1.346.103-1.781ZM62 49.5c2.643 9.044 1.342 9.885-6.436 4.5-7.845 5.29-8.642 4.01-5.887-5-7.493-5.775-6.177-7 2.323-7.5 3.215-8.859 4.896-8.9 8 0 7.5 0 9.562 2.318 2 8Z" fill="#FFDA8E"/><path d="m80.436 63.928-7.71-7.72a19.025 19.025 0 0 0 2.399-9.266c0-10.563-8.563-19.125-19.125-19.125-10.563 0-19.125 8.562-19.125 19.125 0 3.36.872 6.514 2.395 9.258l-7.707 7.706c-.446.445-.341 1.381.105 1.827.399.398.707.334.707.334h6.75v6.75c.027.249.147.52.339.71.445.446 1.344.517 1.79.072l8.57-8.57A19.06 19.06 0 0 0 56 66.067c2.158 0 4.224-.373 6.16-1.033l8.586 8.599c.446.446 1.345.376 1.791-.071.192-.192.31-.463.339-.711v-6.76h6.75s.306.066.706-.335c.444-.447.55-1.383.104-1.829Zm-39.117 6.373v-5.467a1.124 1.124 0 0 0-.31-.683c-.378-.377-.683-.327-.683-.327l-5.468.018 5.678-5.678a19.193 19.193 0 0 0 7.008 5.914L41.32 70.3Zm14.68-6.485c-9.32 0-16.875-7.556-16.875-16.875 0-9.32 7.555-16.875 16.875-16.875S72.874 37.62 72.874 46.94s-7.556 16.875-16.875 16.875Zm15.672.029s-.305-.05-.68.327a1.117 1.117 0 0 0-.31.684v5.475l-6.241-6.25a19.173 19.173 0 0 0 7.016-5.912l5.686 5.693-5.47-.017ZM60.654 41.091c-3.035-8.7-6.126-8.719-9.269-.058-9.27.18-10.243 3.09-2.918 8.737-2.694 8.81-.207 10.628 7.464 5.456 7.606 5.267 10.117 3.478 7.533-5.365 7.394-5.555 6.457-8.478-2.81-8.77Zm.076 7.454c2.874 8.24 2.051 8.818-4.785 3.313-6.774 5.587-7.51 4.955-4.744-3.37-6.87-4.155-6.744-5.396 1.854-5.396 2.383-7.918 3.503-7.941 5.889.034 8.528 0 8.841 1.179 1.786 5.419Z" fill="#3C2F22"/></svg>